# xmcd CD database file
#
# Track frame offsets:
#	150
#	17916
#	35236
#	52995
#	70567
#	88216
#	107585
#	125790
#	140567
#	156560
#	172698
#
# Disc length: 2502 seconds
#
# Revision: 0
# Processed by: cddbd v1.5.2PL0 Copyright (c) Steve Scherf et al.
# Submitted via: CDex 1.70beta2
#
DISCID=9809c40b
DTITLE=Trey Stone - Ahead Of The Pack
DYEAR=2013
DGENRE=roots
TTITLE0=Hittin' The Road
TTITLE1=Things Are Coming Up
TTITLE2=Picture Show
TTITLE3=Eleanor Street
TTITLE4=I'm Only Human
TTITLE5=I Came Late to Country
TTITLE6=The Girls At Work
TTITLE7=Do You Wanna Get Trashed With Me?
TTITLE8=Your Cruel Cruel Ways
TTITLE9=You Can Live With The Pain
TTITLE10=My Favorite Thing
EXTD=YEAR: 2013
EXTT0=
EXTT1=
EXTT2=
EXTT3=
EXTT4=
EXTT5=
EXTT6=
EXTT7=
EXTT8=
EXTT9=
EXTT10=
PLAYORDER=
